<?xml version="1.0" encoding="UTF-8" standalone="no"?>
<svg
   height="16"
   viewBox="0 0 16 16"
   width="16"
   version="1.1"
   id="svg759"
   sodipodi:docname="Map.svg"
   inkscape:version="1.2.2 (732a01da63, 2022-12-09, custom)"
   xmlns:inkscape="http://www.inkscape.org/namespaces/inkscape"
   xmlns:sodipodi="http://sodipodi.sourceforge.net/DTD/sodipodi-0.dtd"
   xmlns="http://www.w3.org/2000/svg"
   xmlns:svg="http://www.w3.org/2000/svg">
  <defs
     id="defs763" />
  <sodipodi:namedview
     id="namedview761"
     pagecolor="#ffffff"
     bordercolor="#000000"
     borderopacity="0.25"
     inkscape:showpageshadow="2"
     inkscape:pageopacity="0.0"
     inkscape:pagecheckerboard="0"
     inkscape:deskcolor="#d1d1d1"
     showgrid="false"
     inkscape:zoom="54.25"
     inkscape:cx="7.4470046"
     inkscape:cy="7.6682028"
     inkscape:window-width="1920"
     inkscape:window-height="1044"
     inkscape:window-x="0"
     inkscape:window-y="0"
     inkscape:window-maximized="1"
     inkscape:current-layer="svg759" />
  <path
     d="M1 1v2h2V1zm3 0v2h2V1zm3 0v2h2V1zm3 0v2h2V1zm3 0v2h2V1zM1 4v2h2V4zm3 0v2h2V4zm3 0v2h2V4zm3 0v2h2V4zm3 0v2h2V4zM1 7v2h2V7zm3 0v2h2V7zm3 0v2h2V7zm3 0v2h2V7zm3 0v2h2V7zM1 10v2h2v-2zm3 0v2h2v-2zm3 0v2h2v-2zm3 0v2h2v-2zm3 0v2h2v-2zM1 13v2h2v-2zm3 0v2h2v-2zm3 0v2h2v-2zm3 0v2h2v-2zm3 0v2h2v-2z"
     fill="#8da5f3"
     id="path757"
     style="fill-opacity:1.0;fill:#e1da5b" />
</svg>
