<?xml version="1.0" encoding="UTF-8" standalone="no"?>
<svg
   height="16"
   viewBox="0 0 16 16"
   width="16"
   version="1.1"
   id="svg1"
   sodipodi:docname="Entity.svg"
   xml:space="preserve"
   inkscape:version="1.3 (0e150ed, 2023-07-21)"
   xmlns:inkscape="http://www.inkscape.org/namespaces/inkscape"
   xmlns:sodipodi="http://sodipodi.sourceforge.net/DTD/sodipodi-0.dtd"
   xmlns="http://www.w3.org/2000/svg"
   xmlns:svg="http://www.w3.org/2000/svg"><defs
     id="defs1" /><sodipodi:namedview
     id="namedview1"
     pagecolor="#ffffff"
     bordercolor="#000000"
     borderopacity="0.25"
     inkscape:showpageshadow="2"
     inkscape:pageopacity="0.0"
     inkscape:pagecheckerboard="0"
     inkscape:deskcolor="#d1d1d1"
     inkscape:zoom="14.08279"
     inkscape:cx="-4.4380411"
     inkscape:cy="6.3907792"
     inkscape:window-width="1920"
     inkscape:window-height="1044"
     inkscape:window-x="0"
     inkscape:window-y="0"
     inkscape:window-maximized="1"
     inkscape:current-layer="svg1" /><path
     d="M6.492 1a1 1 0 0 0-1 1v3a1 1 0 0 0 1 1h1v.99a1 1 0 0 0-.316.062l-2.051.684-.684-2.051a1 1 0 0 0-1.898.631l1 3a1 1 0 0 0 1.265.633l1.684-.56v.61c0 .041.019.076.024.116l-4.579 3.052a1 1 0 1 0 1.11 1.664l5.056-3.37 1.495 2.986a1 1 0 0 0 1.21.502l3-1a1 1 0 1 0-.632-1.897l-2.178.725-.975-1.951a.981.981 0 0 0 .469-.827V9h1.383l.722 1.448a1 1 0 1 0 1.79-.895l-1-2A1 1 0 0 0 12.492 7h-3V6h1a1 1 0 0 0 1-1V2a1 1 0 0 0-1-1zm0 2h1v2h-1z"
     fill="#8da5f3"
     id="path1"
     style="fill:#e1da5b;fill-opacity:1" /></svg>
